<svg xmlns="http://www.w3.org/2000/svg" width="910" height="1028" viewBox="0 0 910 1028">
  <g id="Group_39" data-name="Group 39" transform="translate(-1201.5 13.5)">
    <text id="m" transform="translate(1931.5 682.5) rotate(-90)" fill="#fa9ea4" font-size="719" font-family="Quicksand-Bold, Quicksand" font-weight="700" letter-spacing="0.05em" opacity="0.26"><tspan x="-331.459" y="0">m</tspan></text>
    <g id="Group_38" data-name="Group 38">
      <text id="p" transform="translate(1912.5 208.5) rotate(-90)" fill="#fa9ea4" font-size="711" font-family="Quicksand-Bold, Quicksand" font-weight="700" letter-spacing="0.05em" opacity="0.26"><tspan x="-221.477" y="0">p</tspan></text>
      <g id="Group_30" data-name="Group 30" transform="translate(394 -886)" opacity="0.35">
        <circle id="Ellipse_27" data-name="Ellipse 27" cx="18" cy="18" r="18" transform="translate(924 1276)" fill="#fee6e7"/>
        <circle id="Ellipse_28" data-name="Ellipse 28" cx="18" cy="18" r="18" transform="translate(869 1276)" fill="#fee6e7"/>
        <circle id="Ellipse_29" data-name="Ellipse 29" cx="18" cy="18" r="18" transform="translate(1034 1276)" fill="#fee6e7"/>
        <circle id="Ellipse_30" data-name="Ellipse 30" cx="18" cy="18" r="18" transform="translate(979 1276)" fill="#fee6e7"/>
        <circle id="Ellipse_31" data-name="Ellipse 31" cx="18" cy="18" r="18" transform="translate(1089 1276)" fill="#fee6e7"/>
        <circle id="Ellipse_32" data-name="Ellipse 32" cx="18" cy="18" r="18" transform="translate(924 1331)" fill="#fee6e7"/>
        <circle id="Ellipse_33" data-name="Ellipse 33" cx="18" cy="18" r="18" transform="translate(869 1331)" fill="#fee6e7"/>
        <circle id="Ellipse_34" data-name="Ellipse 34" cx="18" cy="18" r="18" transform="translate(1034 1331)" fill="#fee6e7"/>
        <circle id="Ellipse_35" data-name="Ellipse 35" cx="18" cy="18" r="18" transform="translate(979 1331)" fill="#fee6e7"/>
        <circle id="Ellipse_36" data-name="Ellipse 36" cx="18" cy="18" r="18" transform="translate(1089 1331)" fill="#fee6e7"/>
        <circle id="Ellipse_37" data-name="Ellipse 37" cx="18" cy="18" r="18" transform="translate(924 1386)" fill="#fee6e7"/>
        <circle id="Ellipse_38" data-name="Ellipse 38" cx="18" cy="18" r="18" transform="translate(869 1386)" fill="#fee6e7"/>
        <circle id="Ellipse_39" data-name="Ellipse 39" cx="18" cy="18" r="18" transform="translate(1034 1386)" fill="#fee6e7"/>
        <circle id="Ellipse_40" data-name="Ellipse 40" cx="18" cy="18" r="18" transform="translate(979 1386)" fill="#fee6e7"/>
        <circle id="Ellipse_41" data-name="Ellipse 41" cx="18" cy="18" r="18" transform="translate(1089 1386)" fill="#fee6e7"/>
        <circle id="Ellipse_42" data-name="Ellipse 42" cx="18" cy="18" r="18" transform="translate(924 1441)" fill="#fee6e7"/>
        <circle id="Ellipse_43" data-name="Ellipse 43" cx="18" cy="18" r="18" transform="translate(869 1441)" fill="#fee6e7"/>
        <circle id="Ellipse_44" data-name="Ellipse 44" cx="18" cy="18" r="18" transform="translate(1034 1441)" fill="#fee6e7"/>
        <circle id="Ellipse_45" data-name="Ellipse 45" cx="18" cy="18" r="18" transform="translate(979 1441)" fill="#fee6e7"/>
        <circle id="Ellipse_46" data-name="Ellipse 46" cx="18" cy="18" r="18" transform="translate(1089 1441)" fill="#fee6e7"/>
        <circle id="Ellipse_47" data-name="Ellipse 47" cx="18" cy="18" r="18" transform="translate(924 1496)" fill="#fee6e7"/>
        <circle id="Ellipse_48" data-name="Ellipse 48" cx="18" cy="18" r="18" transform="translate(869 1496)" fill="#fee6e7"/>
        <circle id="Ellipse_49" data-name="Ellipse 49" cx="18" cy="18" r="18" transform="translate(1034 1496)" fill="#fee6e7"/>
        <circle id="Ellipse_50" data-name="Ellipse 50" cx="18" cy="18" r="18" transform="translate(979 1496)" fill="#fee6e7"/>
        <circle id="Ellipse_51" data-name="Ellipse 51" cx="18" cy="18" r="18" transform="translate(1089 1496)" fill="#fee6e7"/>
      </g>
    </g>
  </g>
</svg>
