<svg xmlns="http://www.w3.org/2000/svg" width="45" height="45" viewBox="0 0 45 45">
  <g id="Group_32" data-name="Group 32" transform="translate(-869 -1276)">
    <circle id="Ellipse_27" data-name="Ellipse 27" cx="3" cy="3" r="3" transform="translate(879 1276)" fill="#fee6e7"/>
    <circle id="Ellipse_28" data-name="Ellipse 28" cx="3" cy="3" r="3" transform="translate(869 1276)" fill="#fee6e7"/>
    <circle id="Ellipse_29" data-name="Ellipse 29" cx="3" cy="3" r="3" transform="translate(898 1276)" fill="#fee6e7"/>
    <ellipse id="Ellipse_30" data-name="Ellipse 30" cx="3.5" cy="3" rx="3.5" ry="3" transform="translate(888 1276)" fill="#fee6e7"/>
    <circle id="Ellipse_31" data-name="Ellipse 31" cx="3" cy="3" r="3" transform="translate(908 1276)" fill="#fee6e7"/>
    <circle id="Ellipse_32" data-name="Ellipse 32" cx="3" cy="3" r="3" transform="translate(879 1286)" fill="#fee6e7"/>
    <circle id="Ellipse_33" data-name="Ellipse 33" cx="3" cy="3" r="3" transform="translate(869 1286)" fill="#fee6e7"/>
    <circle id="Ellipse_34" data-name="Ellipse 34" cx="3" cy="3" r="3" transform="translate(898 1286)" fill="#fee6e7"/>
    <ellipse id="Ellipse_35" data-name="Ellipse 35" cx="3.5" cy="3" rx="3.5" ry="3" transform="translate(888 1286)" fill="#fee6e7"/>
    <circle id="Ellipse_36" data-name="Ellipse 36" cx="3" cy="3" r="3" transform="translate(908 1286)" fill="#fee6e7"/>
    <ellipse id="Ellipse_37" data-name="Ellipse 37" cx="3" cy="3.5" rx="3" ry="3.5" transform="translate(879 1295)" fill="#fee6e7"/>
    <ellipse id="Ellipse_38" data-name="Ellipse 38" cx="3" cy="3.5" rx="3" ry="3.5" transform="translate(869 1295)" fill="#fee6e7"/>
    <ellipse id="Ellipse_39" data-name="Ellipse 39" cx="3" cy="3.5" rx="3" ry="3.5" transform="translate(898 1295)" fill="#fee6e7"/>
    <circle id="Ellipse_40" data-name="Ellipse 40" cx="3.5" cy="3.5" r="3.5" transform="translate(888 1295)" fill="#fee6e7"/>
    <ellipse id="Ellipse_41" data-name="Ellipse 41" cx="3" cy="3.5" rx="3" ry="3.5" transform="translate(908 1295)" fill="#fee6e7"/>
    <circle id="Ellipse_42" data-name="Ellipse 42" cx="3" cy="3" r="3" transform="translate(879 1305)" fill="#fee6e7"/>
    <circle id="Ellipse_43" data-name="Ellipse 43" cx="3" cy="3" r="3" transform="translate(869 1305)" fill="#fee6e7"/>
    <circle id="Ellipse_44" data-name="Ellipse 44" cx="3" cy="3" r="3" transform="translate(898 1305)" fill="#fee6e7"/>
    <ellipse id="Ellipse_45" data-name="Ellipse 45" cx="3.5" cy="3" rx="3.5" ry="3" transform="translate(888 1305)" fill="#fee6e7"/>
    <circle id="Ellipse_46" data-name="Ellipse 46" cx="3" cy="3" r="3" transform="translate(908 1305)" fill="#fee6e7"/>
    <circle id="Ellipse_47" data-name="Ellipse 47" cx="3" cy="3" r="3" transform="translate(879 1315)" fill="#fee6e7"/>
    <circle id="Ellipse_48" data-name="Ellipse 48" cx="3" cy="3" r="3" transform="translate(869 1315)" fill="#fee6e7"/>
    <circle id="Ellipse_49" data-name="Ellipse 49" cx="3" cy="3" r="3" transform="translate(898 1315)" fill="#fee6e7"/>
    <ellipse id="Ellipse_50" data-name="Ellipse 50" cx="3.5" cy="3" rx="3.5" ry="3" transform="translate(888 1315)" fill="#fee6e7"/>
    <circle id="Ellipse_51" data-name="Ellipse 51" cx="3" cy="3" r="3" transform="translate(908 1315)" fill="#fee6e7"/>
  </g>
</svg>
